<svg width="20" height="20" viewBox="0 0 20 20" fill="none" xmlns="http://www.w3.org/2000/svg">
<g clip-path="url(#clip0_170_35377)">
<path d="M14.5833 5.41602H14.5916M5.83329 1.66602H14.1666C16.4678 1.66602 18.3333 3.5315 18.3333 5.83268V14.166C18.3333 16.4672 16.4678 18.3327 14.1666 18.3327H5.83329C3.53211 18.3327 1.66663 16.4672 1.66663 14.166V5.83268C1.66663 3.5315 3.53211 1.66602 5.83329 1.66602ZM13.3333 9.47435C13.4361 10.1679 13.3177 10.8762 12.9948 11.4985C12.6718 12.1209 12.1609 12.6255 11.5346 12.9407C10.9084 13.256 10.1987 13.3657 9.50645 13.2543C8.81423 13.1429 8.17476 12.8161 7.67899 12.3203C7.18322 11.8245 6.8564 11.1851 6.74502 10.4929C6.63363 9.80064 6.74335 9.09093 7.05856 8.46466C7.37378 7.83839 7.87845 7.32747 8.50078 7.00455C9.12311 6.68163 9.83142 6.56317 10.525 6.66602C11.2324 6.77092 11.8873 7.10057 12.393 7.60627C12.8987 8.11197 13.2284 8.76691 13.3333 9.47435Z" stroke="#0FC324" stroke-width="1.5" stroke-linecap="round" stroke-linejoin="round"/>
</g>
<defs>
<clipPath id="clip0_170_35377">
<rect width="20" height="20" fill="white" transform="translate(0 -0.000488281)"/>
</clipPath>
</defs>
</svg>
