<svg width="1280" height="386" viewBox="0 0 1280 386" fill="none" xmlns="http://www.w3.org/2000/svg">
<g opacity="0.2" clip-path="url(#clip0_46_194)">
<g clip-path="url(#clip1_46_194)">
<path d="M1281 386V264.115H1268.19V156.242H1199.63V264.115H1114.62V313.181H965.541V276.567H851.993V206.868H772.392V165.217H701.757V313.181H685.386V176.083H633.788V313.181H575.758V225.661H507.84V203.672H481.733V61H418.247V203.672H346.869V148.137H267.242V88.665H196.608V220.163H180.237V104.185H128.638V220.163H70.6343V175.01H0V313.181V347.699V386" fill="#0FC324"/>
<path d="M220.025 100.605H210.468V104.441H220.025V100.605Z" fill="white"/>
<path d="M220.025 110.194H210.468V114.029H220.025V110.194Z" fill="#0FC324"/>
<path d="M220.025 119.782H210.468V123.617H220.025V119.782Z" fill="#0FC324"/>
<path d="M220.025 129.37H210.468V133.205H220.025V129.37Z" fill="white"/>
<path d="M241.059 100.605H231.502V104.441H241.059V100.605Z" fill="white"/>
<path d="M241.059 110.194H231.502V114.029H241.059V110.194Z" fill="white"/>
<path d="M241.059 119.782H231.502V123.617H241.059V119.782Z" fill="#0FC324"/>
<path d="M241.059 129.37H231.502V133.205H241.059V129.37Z" fill="white"/>
<path d="M262.093 100.605H252.536V104.441H262.093V100.605Z" fill="white"/>
<path d="M262.093 110.194H252.536V114.029H262.093V110.194Z" fill="white"/>
<path d="M262.093 119.782H252.536V123.617H262.093V119.782Z" fill="white"/>
<path d="M262.093 129.37H252.536V133.205H262.093V129.37Z" fill="white"/>
<path d="M285.842 165.293H276.286V169.129H285.842V165.293Z" fill="white"/>
<path d="M285.842 174.882H276.286V178.717H285.842V174.882Z" fill="#0FC324"/>
<path d="M285.842 184.47H276.286V188.305H285.842V184.47Z" fill="white"/>
<path d="M285.842 194.032H276.286V197.867H285.842V194.032Z" fill="white"/>
<path d="M306.876 165.293H297.32V169.129H306.876V165.293Z" fill="#0FC324"/>
<path d="M306.876 174.882H297.32V178.717H306.876V174.882Z" fill="#0FC324"/>
<path d="M306.876 184.47H297.32V188.305H306.876V184.47Z" fill="white"/>
<path d="M306.876 194.032H297.32V197.867H306.876V194.032Z" fill="#0FC324"/>
<path d="M327.936 165.293H318.38V169.129H327.936V165.293Z" fill="white"/>
<path d="M327.936 174.882H318.38V178.717H327.936V174.882Z" fill="white"/>
<path d="M327.936 184.47H318.38V188.305H327.936V184.47Z" fill="white"/>
<path d="M327.936 194.032H318.38V197.867H327.936V194.032Z" fill="white"/>
<path d="M1215.98 178.052H1206.42V181.888H1215.98V178.052Z" fill="white"/>
<path d="M1215.98 187.615H1206.42V191.45H1215.98V187.615Z" fill="#0FC324"/>
<path d="M1215.98 197.203H1206.42V201.038H1215.98V197.203Z" fill="white"/>
<path d="M1215.98 206.791H1206.42V210.626H1215.98V206.791Z" fill="white"/>
<path d="M1237.01 178.052H1227.45V181.888H1237.01V178.052Z" fill="#0FC324"/>
<path d="M1237.01 187.615H1227.45V191.45H1237.01V187.615Z" fill="#0FC324"/>
<path d="M1237.01 197.203H1227.45V201.038H1237.01V197.203Z" fill="white"/>
<path d="M1237.01 206.791H1227.45V210.626H1237.01V206.791Z" fill="#0FC324"/>
<path d="M1258.04 178.052H1248.49V181.888H1258.04V178.052Z" fill="white"/>
<path d="M1258.04 187.615H1248.49V191.45H1258.04V187.615Z" fill="white"/>
<path d="M1258.04 197.203H1248.49V201.038H1258.04V197.203Z" fill="white"/>
<path d="M1258.04 206.791H1248.49V210.626H1258.04V206.791Z" fill="white"/>
<path d="M724.406 175.316H716.617V178.461H724.406V175.316Z" fill="white"/>
<path d="M724.406 183.14H716.617V186.285H724.406V183.14Z" fill="#0FC324"/>
<path d="M724.406 190.938H716.617V194.083H724.406V190.938Z" fill="white"/>
<path d="M724.406 198.763H716.617V201.908H724.406V198.763Z" fill="white"/>
<path d="M741.545 175.316H733.757V178.461H741.545V175.316Z" fill="#0FC324"/>
<path d="M741.545 183.14H733.757V186.285H741.545V183.14Z" fill="#0FC324"/>
<path d="M741.545 190.938H733.757V194.083H741.545V190.938Z" fill="white"/>
<path d="M741.545 198.763H733.757V201.908H741.545V198.763Z" fill="#0FC324"/>
<path d="M758.685 175.316H750.897V178.461H758.685V175.316Z" fill="white"/>
<path d="M758.685 183.14H750.897V186.285H758.685V183.14Z" fill="white"/>
<path d="M758.685 190.938H750.897V194.083H758.685V190.938Z" fill="white"/>
<path d="M758.685 198.763H750.897V201.908H758.685V198.763Z" fill="white"/>
<path d="M436.052 73.7842H427.931V79.307H436.052V73.7842Z" fill="white"/>
<path d="M436.052 87.5654H427.931V93.0882H436.052V87.5654Z" fill="#0FC324"/>
<path d="M436.052 101.321H427.931V106.844H436.052V101.321Z" fill="white"/>
<path d="M436.052 115.103H427.931V120.625H436.052V115.103Z" fill="white"/>
<path d="M453.961 73.7842H445.839V79.307H453.961V73.7842Z" fill="#0FC324"/>
<path d="M453.961 87.5654H445.839V93.0882H453.961V87.5654Z" fill="white"/>
<path d="M453.961 101.321H445.839V106.844H453.961V101.321Z" fill="#0FC324"/>
<path d="M453.961 115.103H445.839V120.625H453.961V115.103Z" fill="white"/>
<path d="M471.869 73.7842H463.748V79.307H471.869V73.7842Z" fill="white"/>
<path d="M471.869 87.5654H463.748V93.0882H471.869V87.5654Z" fill="white"/>
<path d="M471.869 101.321H463.748V106.844H471.869V101.321Z" fill="#0FC324"/>
<path d="M471.869 115.103H463.748V120.625H471.869V115.103Z" fill="white"/>
<path d="M436.052 131.875H427.931V137.398H436.052V131.875Z" fill="#0FC324"/>
<path d="M436.052 145.657H427.931V151.18H436.052V145.657Z" fill="#0FC324"/>
<path d="M436.052 159.438H427.931V164.961H436.052V159.438Z" fill="#0FC324"/>
<path d="M436.052 173.194H427.931V178.717H436.052V173.194Z" fill="white"/>
<path d="M453.961 131.875H445.839V137.398H453.961V131.875Z" fill="#0FC324"/>
<path d="M453.961 145.657H445.839V151.18H453.961V145.657Z" fill="#0FC324"/>
<path d="M453.961 159.438H445.839V164.961H453.961V159.438Z" fill="#0FC324"/>
<path d="M453.961 173.194H445.839V178.717H453.961V173.194Z" fill="white"/>
<path d="M471.869 131.875H463.748V137.398H471.869V131.875Z" fill="#0FC324"/>
<path d="M471.869 145.657H463.748V151.18H471.869V145.657Z" fill="white"/>
<path d="M471.869 159.438H463.748V164.961H471.869V159.438Z" fill="#0FC324"/>
<path d="M471.869 173.194H463.748V178.717H471.869V173.194Z" fill="white"/>
<path d="M399.826 244.684H391.704V250.206H399.826V244.684Z" fill="#0FC324"/>
<path d="M399.826 258.465H391.704V263.988H399.826V258.465Z" fill="#0FC324"/>
<path d="M399.826 272.221H391.704V277.743H399.826V272.221Z" fill="#0FC324"/>
<path d="M399.826 286.002H391.704V291.525H399.826V286.002Z" fill="white"/>
<path d="M417.734 244.684H409.613V250.206H417.734V244.684Z" fill="#0FC324"/>
<path d="M417.734 258.465H409.613V263.988H417.734V258.465Z" fill="#0FC324"/>
<path d="M417.734 272.221H409.613V277.743H417.734V272.221Z" fill="#0FC324"/>
<path d="M417.734 286.002H409.613V291.525H417.734V286.002Z" fill="white"/>
<path d="M435.642 244.684H427.521V250.206H435.642V244.684Z" fill="#0FC324"/>
<path d="M435.642 258.465H427.521V263.988H435.642V258.465Z" fill="white"/>
<path d="M435.642 272.221H427.521V277.743H435.642V272.221Z" fill="#0FC324"/>
<path d="M435.642 286.002H427.521V291.525H435.642V286.002Z" fill="white"/>
<path d="M20.3167 188.586H10.7604V192.422H20.3167V188.586Z" fill="white"/>
<path d="M20.3167 198.175H10.7604V202.01H20.3167V198.175Z" fill="white"/>
<path d="M20.3167 207.763H10.7604V211.598H20.3167V207.763Z" fill="white"/>
<path d="M20.3167 217.325H10.7604V221.16H20.3167V217.325Z" fill="white"/>
<path d="M41.3507 188.586H31.7944V192.422H41.3507V188.586Z" fill="white"/>
<path d="M41.3507 198.175H31.7944V202.01H41.3507V198.175Z" fill="white"/>
<path d="M41.3507 207.763H31.7944V211.598H41.3507V207.763Z" fill="white"/>
<path d="M41.3507 217.325H31.7944V221.16H41.3507V217.325Z" fill="white"/>
<path d="M62.4103 188.586H52.8541V192.422H62.4103V188.586Z" fill="white"/>
<path d="M62.4103 198.175H52.8541V202.01H62.4103V198.175Z" fill="white"/>
<path d="M62.4103 207.763H52.8541V211.598H62.4103V207.763Z" fill="white"/>
<path d="M62.4103 217.325H52.8541V221.16H62.4103V217.325Z" fill="white"/>
<path d="M106.425 235.504H74.8616V239.34H106.425V235.504Z" fill="white"/>
<path d="M106.425 245.093H74.8616V248.928H106.425V245.093Z" fill="white"/>
<path d="M106.425 254.681H74.8616V258.516H106.425V254.681Z" fill="white"/>
<path d="M106.425 264.269H74.8616V268.104H106.425V264.269Z" fill="white"/>
<path d="M1262.09 275.826H1125.59V279.329H1262.09V275.826Z" fill="white"/>
<path d="M1262.09 284.57H1125.59V288.073H1262.09V284.57Z" fill="white"/>
<path d="M1262.09 293.34H1125.59V296.868H1262.09V293.34Z" fill="white"/>
<path d="M1262.09 302.084H1125.59V305.613H1262.09V302.084Z" fill="white"/>
<path d="M175.933 235.504H144.369V239.34H175.933V235.504Z" fill="white"/>
<path d="M175.933 245.093H144.369V248.928H175.933V245.093Z" fill="#0FC324"/>
<path d="M175.933 254.681H144.369V258.516H175.933V254.681Z" fill="#0FC324"/>
<path d="M175.933 264.269H144.369V268.104H175.933V264.269Z" fill="white"/>
<path d="M245.44 235.504H213.876V239.34H245.44V235.504Z" fill="#0FC324"/>
<path d="M245.44 245.093H213.876V248.928H245.44V245.093Z" fill="white"/>
<path d="M245.44 254.681H213.876V258.516H245.44V254.681Z" fill="white"/>
<path d="M245.44 264.269H213.876V268.104H245.44V264.269Z" fill="white"/>
<path d="M906.179 291.602H896.623V295.437H906.179V291.602Z" fill="white"/>
<path d="M906.179 301.19H896.623V305.025H906.179V301.19Z" fill="#0FC324"/>
<path d="M906.179 310.778H896.623V314.613H906.179V310.778Z" fill="#0FC324"/>
<path d="M906.179 320.34H896.623V324.176H906.179V320.34Z" fill="white"/>
<path d="M927.239 291.602H917.683V295.437H927.239V291.602Z" fill="white"/>
<path d="M927.239 301.19H917.683V305.025H927.239V301.19Z" fill="white"/>
<path d="M927.239 310.778H917.683V314.613H927.239V310.778Z" fill="#0FC324"/>
<path d="M927.239 320.34H917.683V324.176H927.239V320.34Z" fill="white"/>
<path d="M948.273 291.602H938.717V295.437H948.273V291.602Z" fill="white"/>
<path d="M948.273 301.19H938.717V305.025H948.273V301.19Z" fill="white"/>
<path d="M948.273 310.778H938.717V314.613H948.273V310.778Z" fill="white"/>
<path d="M948.273 320.34H938.717V324.176H948.273V320.34Z" fill="white"/>
<path d="M791.786 220.214H782.23V224.05H791.786V220.214Z" fill="white"/>
<path d="M791.786 229.803H782.23V233.638H791.786V229.803Z" fill="white"/>
<path d="M791.786 239.391H782.23V243.226H791.786V239.391Z" fill="white"/>
<path d="M791.786 248.979H782.23V252.814H791.786V248.979Z" fill="white"/>
<path d="M812.82 220.214H803.264V224.05H812.82V220.214Z" fill="white"/>
<path d="M812.82 229.803H803.264V233.638H812.82V229.803Z" fill="white"/>
<path d="M812.82 239.391H803.264V243.226H812.82V239.391Z" fill="white"/>
<path d="M812.82 248.979H803.264V252.814H812.82V248.979Z" fill="white"/>
<path d="M833.88 220.214H824.323V224.05H833.88V220.214Z" fill="white"/>
<path d="M833.88 229.803H824.323V233.638H833.88V229.803Z" fill="white"/>
<path d="M833.88 239.391H824.323V243.226H833.88V239.391Z" fill="white"/>
<path d="M833.88 248.979H824.323V252.814H833.88V248.979Z" fill="white"/>
<path d="M675.907 213.516H644.343V217.351H675.907V213.516Z" fill="white"/>
<path d="M675.907 203.927H644.343V207.763H675.907V203.927Z" fill="white"/>
<path d="M675.907 194.339H644.343V198.175H675.907V194.339Z" fill="#0FC324"/>
<path d="M675.907 184.751H644.343V188.586H675.907V184.751Z" fill="white"/>
</g>
</g>
<defs>
<clipPath id="clip0_46_194">
<rect width="1440" height="385.588" fill="white" transform="translate(-80)"/>
</clipPath>
<clipPath id="clip1_46_194">
<rect width="1281" height="325" fill="white" transform="translate(0 61)"/>
</clipPath>
</defs>
</svg>
